# xmcd
#
# Track frame offsets:
# 150
# 18747
# 44352
# 77510
# 105547
# 131552
# 147085
# 172922
# 194327
#
# Disc length: 3811 seconds
#
#
# Revision: 0
# Processed by: cddbd v1.5.2PL0 Copyright (c) Steve Scherf et al.
# Submitted via: Nero 7, 11, 10, 0 
#
DISCID=700ee109
DTITLE=Brad McCool - Live At The Mardi Gras
DYEAR=1999
DGENRE=Blues
TTITLE0=Look At That
TTITLE1=Woke Up This Mornin'
TTITLE2=Jungle Jane
TTITLE3=All Your Lovin'
TTITLE4=Big Legged Woman
TTITLE5=Rockin' At Midnight
TTITLE6=Born Under A Bad Sign
TTITLE7=Ruby Lee
TTITLE8=Junko Pardner
EXTD=
EXTT0=Look At That
EXTT1=Woke Up This Mornin'
EXTT2=Jungle Jane
EXTT3=All Your Lovin'
EXTT4=Big Legged Woman
EXTT5=Rockin' At Midnight
EXTT6=Born Under A Bad Sign
EXTT7=Ruby Lee
EXTT8=Junko Pardner
PLAYORDER=
